<?xml version="1.0" encoding="utf-8"?>
<!-- Generator: Adobe Illustrator 22.1.0, SVG Export Plug-In . SVG Version: 6.00 Build 0)  -->
<svg version="1.1" id="Calque_1" xmlns="http://www.w3.org/2000/svg" xmlns:xlink="http://www.w3.org/1999/xlink" x="0px" y="0px"
	 viewBox="0 0 1076 437" style="enable-background:new 0 0 1076 437;" xml:space="preserve">
<style type="text/css">
	.st0{fill:#FFFFFF;}
</style>
<g transform="translate(0.000000,437.000000) scale(0.100000,-0.100000)">
	<path class="st0" d="M1665,3880L960,2199.6L370,593.2L860,330l700,330l150,330l550-60l590-550l860,20l1310,30l680-50
		c0,0,2330,50,2390,50s1860,40,1860,40l360,30c0,0,220,480,190,570s-150,370-180,380s-1310,70-1310,70l-120,2360l-1560,130
		l-2060-270.8L4580,3910l-1040,20l-610-190.8h-440L1665,3880z"/>
	<path d="M3955,4304c-176-19-418-88-589-168c-125-58-324-175-417-245l-76-58l-29,56c-37,71-152,186-234,234c-136,79-151,81-555,85
		l-360,3l-94-31c-52-17-120-45-150-62c-73-41-188-159-228-234c-34-64-104-239-218-544c-40-107-93-247-118-310c-24-63-73-194-107-290
		s-94-254-132-350c-39-96-89-227-113-290c-262-702-352-942-390-1035C77,894,57,811,56,695c-1-229,116-418,319-515
		c131-62,154-65,505-65c353,0,380,4,520,72c56,27,95,56,155,117c96,96,131,160,200,359l48,137h216h217l38-117
		c63-196,115-294,205-383c88-89,178-138,308-171c76-19,106-20,405-17l323,3l89,31l89,31l61-18c250-77,631-93,891-39
		c182,38,402,113,545,188l75,39l35-29c68-59,154-109,234-136l81-27l1170,1c644,0,1199,0,1235,0s547,0,1135-1c1020,0,1073,1,1125,19
		c103,35,191,88,259,156c82,81,128,158,158,262c21,75,23,98,23,337c0,290-9,350-64,464c-62,129-181,237-315,288
		c-125,47-176,50-663,49l-457-1l-4,1003c-3,1119,2,1042-74,1192c-48,96-164,211-253,254c-126,59-156,63-501,69c-273,5-323,3-365-10
		c-40-14-56-14-89-5c-29,8-354,13-1167,15l-1127,4l-88-31c-171-60-268-135-360-279c-1-2-21,12-45,32c-188,153-451,264-738,314
		C4326,4301,4033,4312,3955,4304z M4323,3785c118-18,288-73,375-121c87-49,207-141,270-207c46-49,52-61,52-97c0-56-16-70-244-209
		c-232-141-242-143-338-78c-221,151-420,172-652,67c-205-91-356-256-434-472c-24-66-26-87-27-223c0-138,3-160,33-273
		c80-302,293-628,523-801c102-77,238-145,335-167c91-20,253-15,349,11c65,18,239,98,249,114c4,6,32,27,62,47c61,41,173,158,210,221
		c34,57,61,137,74,218c20,123-18,325-72,382c-42,44-77,34-254-77c-178-112-289-170-324-170c-36,0-96,72-172,206
		c-90,157-90,184-6,246c55,41,878,549,915,564c49,21,78,17,110-14c15-16,80-113,143-216l115-187l5,565c5,537,6,565,24,585
		c11,12,35,26,55,32c24,7,380,9,1098,7l1063-3l27-28l28-27v-225v-225l-28-27l-27-28l-748-5c-792-5-777-4-804-53c-18-31-24-463-8-523
		c24-85-34-78,734-84c525-4,686-8,703-18c41-23,47-50,51-225c4-142,2-175-13-214c-30-77,2-74-733-73c-391,1-657-2-672-8
		c-14-6-36-22-50-37l-25-27v-303c0-292,1-305,21-332c11-15,36-33,55-40c25-9,226-12,766-12c439-1,742-5,757-11c45-17,55-47,62-176
		c4-65,3-164-1-218c-6-91-10-102-35-128l-28-28H6795c-788,0-1102,3-1118,11c-58,30-57,18-57,467c0,229-4,412-9,412
		c-17,0-31-27-61-121c-46-141-110-264-185-354c-72-87-83-97-196-185c-137-105-396-221-599-268c-85-20-265-34-360-27
		c-277,18-486,92-747,262l-22,15l24-73c38-112,31-160-28-174c-12-3-145-5-296-3l-273,3l-32,36c-23,28-51,96-115,280
		c-95,279-113,315-161,343c-34,20-52,21-533,24c-628,4-570,23-656-208c-21-58-62-174-91-258c-60-174-83-207-153-217
		c-23-3-151-5-283-3c-344,4-331-19-190,353c25,66,61,161,81,210c19,50,97,259,174,465c76,206,165,438,196,515s95,246,142,375
		c46,129,109,296,138,370s78,203,108,285c62,170,151,398,170,434c6,13,25,33,40,45c27,20,42,21,322,24c317,3,336,1,369-51
		c15-22,128-315,267-691c52-141,75-193,80-180c101,260,223,446,399,608c209,194,521,354,776,400C4021,3803,4202,3803,4323,3785z
		 M8646,3730c63-22,59,58,64-1245c5-1292,2-1217,59-1247c21-10,157-13,666-14c352-1,661-4,687-8c34-5,53-15,68-33
		c19-24,20-40,20-245V718l-29-29l-29-29H9133c-794,0-1024,3-1043,13c-14,7-33,28-43,47c-16,33-17,117-15,1490c3,1608-2,1485,68,1514
		c27,12,88,15,276,15C8515,3740,8629,3736,8646,3730z"/>
	<path d="M2001,2824c-28-20-47-57-76-152c-13-42-45-135-73-207c-119-315-186-520-187-570c0-47,2-51,35-68c32-16,65-17,336-15
		c281,3,303,4,323,22c14,13,21,31,21,55c0,35-7,62-58,206c-13,39-55,160-92,270c-104,305-142,408-158,433
		C2049,2833,2027,2841,2001,2824z"/>
</g>
</svg>
